<svg xmlns="http://www.w3.org/2000/svg" viewBox="0 0 712.66 155.78"><defs><style>.cls-1{fill:#fff;}.cls-2{fill:#7a7a7a;}.cls-3{fill:#0073e6;}</style></defs><g id="Camada_2" data-name="Camada 2"><g id="Camada_1-2" data-name="Camada 1"><path class="cls-1" d="M0,102.36V12.9A12.88,12.88,0,0,1,12.7,0,13.11,13.11,0,0,1,23.35,5.43L55.85,49.5,88.52,5.43A12.77,12.77,0,0,1,99,0,12.92,12.92,0,0,1,111.87,12.9v89.47a12.8,12.8,0,0,1-25.59,0V51.75l-20,27.64a13.34,13.34,0,0,1-10.45,5.23,13,13,0,0,1-10.28-5.23L25.41,51.75v50.61a12.44,12.44,0,0,1-12.7,12.51A12.67,12.67,0,0,1,0,102.36Z"/><path class="cls-1" d="M140,29.33A11.89,11.89,0,0,1,152,41.1v62.2a11.77,11.77,0,0,1-23.54,0V41.1A11.93,11.93,0,0,1,140,29.33"/><path class="cls-1" d="M205.64,29.33a39.59,39.59,0,0,1,39.42,39.6V103.3a11.77,11.77,0,0,1-23.53,0V68.93a16,16,0,1,0-31.94,0V103.3a11.67,11.67,0,0,1-11.77,11.57,11.8,11.8,0,0,1-11.77-11.57V68.93a39.62,39.62,0,0,1,39.59-39.6"/><path class="cls-1" d="M255.48,72.1a42.61,42.61,0,0,1,42.58-42.77,43.56,43.56,0,0,1,19.24,4.49V11.6A11.73,11.73,0,0,1,329.25,0,11.53,11.53,0,0,1,340.83,11.6V72.1a42.68,42.68,0,1,1-85.35,0m23.34,0a19.24,19.24,0,1,0,19.24-19.42A19.24,19.24,0,0,0,278.82,72.1"/><path class="cls-2" d="M351.17,30.27C352.1,14.77,364.43,0,388,0h37.17a12.72,12.72,0,0,1,12.7,12.7,12.84,12.84,0,0,1-12.7,12.71H386.66c-5.24,0-7.85,3.17-8.23,6.35,0,3.17,2.25,6.34,6.91,8l36.24,11.76c17,5.61,24.47,19.43,23.91,33.06-.93,15.51-13.27,30.26-37.17,30.26H368.73a12.72,12.72,0,0,1-12.89-12.51,13,13,0,0,1,12.89-13.07h40.9c5.23,0,8.22-3,8.22-6.35,0-3-2.06-6.35-6.91-7.66l-36.05-12c-17-5.79-24.28-19.61-23.72-33.06"/><path class="cls-3" d="M455.49,41.1a11.77,11.77,0,1,1,23.53,0V75.47A16.15,16.15,0,0,0,494.9,91.53,16,16,0,0,0,511,75.47V41.1a11.68,11.68,0,1,1,23.35,0V75.47a39.41,39.41,0,0,1-78.82,0Zm39.42,91.33a19.56,19.56,0,0,0,16.43-8.77,12.25,12.25,0,0,1,10.09-5.8,12.42,12.42,0,0,1,6,1.87,12.06,12.06,0,0,1,3.74,16.44,42.93,42.93,0,0,1-72.09,0,12,12,0,0,1,3.55-16.44,11.8,11.8,0,0,1,6-1.87,12.54,12.54,0,0,1,10.27,5.8,19.42,19.42,0,0,0,16.07,8.77"/><path class="cls-2" d="M586.48,29.33a39.6,39.6,0,0,1,39.42,39.6V103.3a11.77,11.77,0,0,1-23.54,0V68.93a16,16,0,1,0-31.94,0V103.3a11.67,11.67,0,0,1-11.76,11.57,11.79,11.79,0,0,1-11.77-11.57V68.93a39.62,39.62,0,0,1,39.59-39.6"/><path class="cls-2" d="M636.31,72.1a42.66,42.66,0,0,1,72.84-30.26c4.67,4.49,4.67,11.78,0,16.63a11.57,11.57,0,0,1-8.21,3.36,10.56,10.56,0,0,1-8.22-3.73,20.37,20.37,0,0,0-13.82-5.41,19.42,19.42,0,0,0,0,38.84,19.76,19.76,0,0,0,13.82-5.61,11.67,11.67,0,0,1,8.22-3.54,10.5,10.5,0,0,1,8.21,3.54c4.67,4.48,4.67,11.77,0,16.63A42.79,42.79,0,0,1,636.31,72.1"/><path class="cls-3" d="M140,0a12.81,12.81,0,0,1,13.08,12.71A13,13,0,0,1,140,25.6a12.6,12.6,0,0,1-12.51-12.88A12.45,12.45,0,0,1,140,0"/></g></g></svg>